<mxfile host="app.diagrams.net" modified="2022-05-17T08:20:56.318Z" agent="5.0 (Macintosh; Intel Mac OS X 10_15_7) AppleWebKit/537.36 (KHTML, like Gecko) Chrome/101.0.4951.64 Safari/537.36" etag="0X60QFYEeR2-Pz5G6BpR" version="18.0.6" type="github">
  <diagram id="tjd_tc5IpjrrBPNeElXo" name="System context">
    <mxGraphModel dx="831" dy="771" grid="0" gridSize="10" guides="1" tooltips="1" connect="1" arrows="1" fold="1" page="1" pageScale="1" pageWidth="850" pageHeight="1100" math="0" shadow="0">
      <root>
        <mxCell id="jfjnhQVOOTjRMuESyao--0" />
        <mxCell id="jfjnhQVOOTjRMuESyao--1" parent="jfjnhQVOOTjRMuESyao--0" />
        <mxCell id="9WcTvpFVvzm3gj0QFyEQ-29" style="edgeStyle=none;rounded=0;orthogonalLoop=1;jettySize=auto;html=1;entryX=0;entryY=0;entryDx=110;entryDy=80;entryPerimeter=0;endArrow=classic;endFill=1;shadow=0;" edge="1" parent="jfjnhQVOOTjRMuESyao--1" source="aMJKWlBo-nqmuBM7njpC-0" target="aMJKWlBo-nqmuBM7njpC-5">
          <mxGeometry relative="1" as="geometry" />
        </mxCell>
        <mxCell id="9WcTvpFVvzm3gj0QFyEQ-32" value="DatenAbfrage&lt;br&gt;&amp;amp;&lt;br&gt;Sync" style="edgeLabel;html=1;align=center;verticalAlign=middle;resizable=0;points=[];labelBackgroundColor=none;shadow=0;" vertex="1" connectable="0" parent="9WcTvpFVvzm3gj0QFyEQ-29">
          <mxGeometry x="-0.0878" y="-1" relative="1" as="geometry">
            <mxPoint as="offset" />
          </mxGeometry>
        </mxCell>
        <mxCell id="aMJKWlBo-nqmuBM7njpC-0" value="Applikation" style="shape=folder;fontStyle=1;spacingTop=10;tabWidth=40;tabHeight=14;tabPosition=left;html=1;fillColor=#f5f5f5;strokeColor=#666666;gradientColor=#b3b3b3;shadow=0;" parent="jfjnhQVOOTjRMuESyao--1" vertex="1">
          <mxGeometry x="425" y="660" width="110" height="80" as="geometry" />
        </mxCell>
        <mxCell id="9WcTvpFVvzm3gj0QFyEQ-17" style="rounded=0;orthogonalLoop=1;jettySize=auto;html=1;entryX=0.5;entryY=1;entryDx=0;entryDy=0;entryPerimeter=0;endArrow=classic;endFill=1;dashed=1;shadow=0;exitX=0.627;exitY=0.15;exitDx=0;exitDy=0;exitPerimeter=0;" edge="1" parent="jfjnhQVOOTjRMuESyao--1" source="aMJKWlBo-nqmuBM7njpC-5" target="9WcTvpFVvzm3gj0QFyEQ-4">
          <mxGeometry relative="1" as="geometry" />
        </mxCell>
        <mxCell id="9WcTvpFVvzm3gj0QFyEQ-18" value="&amp;lt;&amp;lt; import &amp;gt;&amp;gt;" style="edgeLabel;html=1;align=center;verticalAlign=middle;resizable=0;points=[];shadow=0;" vertex="1" connectable="0" parent="9WcTvpFVvzm3gj0QFyEQ-17">
          <mxGeometry x="-0.1003" y="1" relative="1" as="geometry">
            <mxPoint x="1" y="-14" as="offset" />
          </mxGeometry>
        </mxCell>
        <mxCell id="9WcTvpFVvzm3gj0QFyEQ-26" style="edgeStyle=none;rounded=0;orthogonalLoop=1;jettySize=auto;html=1;endArrow=classic;endFill=1;shadow=0;" edge="1" parent="jfjnhQVOOTjRMuESyao--1" source="aMJKWlBo-nqmuBM7njpC-5" target="9WcTvpFVvzm3gj0QFyEQ-6">
          <mxGeometry relative="1" as="geometry" />
        </mxCell>
        <mxCell id="9WcTvpFVvzm3gj0QFyEQ-33" value="Text &amp;amp; Media" style="edgeLabel;html=1;align=center;verticalAlign=middle;resizable=0;points=[];shadow=0;" vertex="1" connectable="0" parent="9WcTvpFVvzm3gj0QFyEQ-26">
          <mxGeometry x="0.2212" relative="1" as="geometry">
            <mxPoint as="offset" />
          </mxGeometry>
        </mxCell>
        <mxCell id="aMJKWlBo-nqmuBM7njpC-5" value="CMS" style="shape=folder;fontStyle=1;spacingTop=10;tabWidth=40;tabHeight=14;tabPosition=left;html=1;shadow=0;" parent="jfjnhQVOOTjRMuESyao--1" vertex="1">
          <mxGeometry x="180" y="540" width="110" height="80" as="geometry" />
        </mxCell>
        <mxCell id="9WcTvpFVvzm3gj0QFyEQ-25" style="edgeStyle=none;rounded=0;orthogonalLoop=1;jettySize=auto;html=1;entryX=1.018;entryY=0.506;entryDx=0;entryDy=0;entryPerimeter=0;endArrow=classic;endFill=1;shadow=0;" edge="1" parent="jfjnhQVOOTjRMuESyao--1" source="9WcTvpFVvzm3gj0QFyEQ-4" target="9WcTvpFVvzm3gj0QFyEQ-6">
          <mxGeometry relative="1" as="geometry" />
        </mxCell>
        <mxCell id="9WcTvpFVvzm3gj0QFyEQ-34" value="User &amp;amp;&lt;br&gt;Fortschritt" style="edgeLabel;html=1;align=center;verticalAlign=middle;resizable=0;points=[];shadow=0;" vertex="1" connectable="0" parent="9WcTvpFVvzm3gj0QFyEQ-25">
          <mxGeometry x="0.0328" y="1" relative="1" as="geometry">
            <mxPoint as="offset" />
          </mxGeometry>
        </mxCell>
        <mxCell id="9WcTvpFVvzm3gj0QFyEQ-4" value="LMS" style="shape=folder;fontStyle=1;spacingTop=10;tabWidth=40;tabHeight=14;tabPosition=left;html=1;shadow=0;" vertex="1" parent="jfjnhQVOOTjRMuESyao--1">
          <mxGeometry x="243" y="370" width="110" height="80" as="geometry" />
        </mxCell>
        <mxCell id="9WcTvpFVvzm3gj0QFyEQ-6" value="Datenbank" style="shape=folder;fontStyle=1;spacingTop=10;tabWidth=40;tabHeight=14;tabPosition=left;html=1;shadow=0;" vertex="1" parent="jfjnhQVOOTjRMuESyao--1">
          <mxGeometry x="40" y="370" width="110" height="80" as="geometry" />
        </mxCell>
        <mxCell id="9WcTvpFVvzm3gj0QFyEQ-31" style="edgeStyle=none;rounded=0;orthogonalLoop=1;jettySize=auto;html=1;entryX=0;entryY=0;entryDx=20;entryDy=0;entryPerimeter=0;endArrow=none;endFill=0;shadow=0;" edge="1" parent="jfjnhQVOOTjRMuESyao--1" source="9WcTvpFVvzm3gj0QFyEQ-7" target="9WcTvpFVvzm3gj0QFyEQ-21">
          <mxGeometry relative="1" as="geometry" />
        </mxCell>
        <mxCell id="9WcTvpFVvzm3gj0QFyEQ-7" value="Student" style="shape=umlActor;verticalLabelPosition=bottom;verticalAlign=top;html=1;outlineConnect=0;shadow=0;" vertex="1" parent="jfjnhQVOOTjRMuESyao--1">
          <mxGeometry x="670" y="360" width="30" height="60" as="geometry" />
        </mxCell>
        <mxCell id="9WcTvpFVvzm3gj0QFyEQ-27" style="edgeStyle=none;rounded=0;orthogonalLoop=1;jettySize=auto;html=1;endArrow=none;endFill=0;shadow=0;" edge="1" parent="jfjnhQVOOTjRMuESyao--1" source="9WcTvpFVvzm3gj0QFyEQ-8" target="aMJKWlBo-nqmuBM7njpC-5">
          <mxGeometry relative="1" as="geometry" />
        </mxCell>
        <mxCell id="9WcTvpFVvzm3gj0QFyEQ-8" value="Content Manager" style="shape=umlActor;verticalLabelPosition=bottom;verticalAlign=top;html=1;outlineConnect=0;shadow=0;" vertex="1" parent="jfjnhQVOOTjRMuESyao--1">
          <mxGeometry x="80" y="550" width="30" height="60" as="geometry" />
        </mxCell>
        <mxCell id="9WcTvpFVvzm3gj0QFyEQ-23" style="rounded=0;orthogonalLoop=1;jettySize=auto;html=1;endArrow=none;endFill=0;shadow=0;" edge="1" parent="jfjnhQVOOTjRMuESyao--1" source="9WcTvpFVvzm3gj0QFyEQ-10" target="9WcTvpFVvzm3gj0QFyEQ-4">
          <mxGeometry relative="1" as="geometry" />
        </mxCell>
        <mxCell id="9WcTvpFVvzm3gj0QFyEQ-24" style="rounded=0;orthogonalLoop=1;jettySize=auto;html=1;entryX=0;entryY=0;entryDx=110;entryDy=30.5;entryPerimeter=0;endArrow=none;endFill=0;shadow=0;" edge="1" parent="jfjnhQVOOTjRMuESyao--1" source="9WcTvpFVvzm3gj0QFyEQ-10" target="aMJKWlBo-nqmuBM7njpC-5">
          <mxGeometry relative="1" as="geometry" />
        </mxCell>
        <mxCell id="9WcTvpFVvzm3gj0QFyEQ-10" value="Admin" style="shape=umlActor;verticalLabelPosition=bottom;verticalAlign=top;html=1;outlineConnect=0;shadow=0;" vertex="1" parent="jfjnhQVOOTjRMuESyao--1">
          <mxGeometry x="420" y="360" width="30" height="60" as="geometry" />
        </mxCell>
        <mxCell id="9WcTvpFVvzm3gj0QFyEQ-28" style="edgeStyle=none;rounded=0;orthogonalLoop=1;jettySize=auto;html=1;entryX=0;entryY=0;entryDx=110;entryDy=47;entryPerimeter=0;endArrow=classic;endFill=1;shadow=0;" edge="1" parent="jfjnhQVOOTjRMuESyao--1" source="9WcTvpFVvzm3gj0QFyEQ-21" target="aMJKWlBo-nqmuBM7njpC-0">
          <mxGeometry relative="1" as="geometry" />
        </mxCell>
        <mxCell id="9WcTvpFVvzm3gj0QFyEQ-30" value="DatenAnfrage&lt;br&gt;&amp;amp;&lt;br&gt;Sync" style="edgeLabel;html=1;align=center;verticalAlign=middle;resizable=0;points=[];labelBackgroundColor=none;shadow=0;" vertex="1" connectable="0" parent="9WcTvpFVvzm3gj0QFyEQ-28">
          <mxGeometry x="-0.116" y="2" relative="1" as="geometry">
            <mxPoint as="offset" />
          </mxGeometry>
        </mxCell>
        <mxCell id="9WcTvpFVvzm3gj0QFyEQ-36" style="edgeStyle=none;rounded=0;orthogonalLoop=1;jettySize=auto;html=1;entryX=0;entryY=0;entryDx=75;entryDy=14;entryPerimeter=0;endArrow=classic;endFill=1;dashed=1;shadow=0;" edge="1" parent="jfjnhQVOOTjRMuESyao--1" source="9WcTvpFVvzm3gj0QFyEQ-21" target="9WcTvpFVvzm3gj0QFyEQ-35">
          <mxGeometry relative="1" as="geometry" />
        </mxCell>
        <mxCell id="9WcTvpFVvzm3gj0QFyEQ-37" value="&amp;lt;&amp;lt; use &amp;gt;&amp;gt;" style="edgeLabel;html=1;align=center;verticalAlign=middle;resizable=0;points=[];shadow=0;" vertex="1" connectable="0" parent="9WcTvpFVvzm3gj0QFyEQ-36">
          <mxGeometry x="-0.3897" y="-3" relative="1" as="geometry">
            <mxPoint as="offset" />
          </mxGeometry>
        </mxCell>
        <mxCell id="9WcTvpFVvzm3gj0QFyEQ-21" value="Frontend" style="shape=folder;fontStyle=1;spacingTop=10;tabWidth=40;tabHeight=14;tabPosition=left;html=1;shadow=0;" vertex="1" parent="jfjnhQVOOTjRMuESyao--1">
          <mxGeometry x="610" y="470" width="110" height="80" as="geometry" />
        </mxCell>
        <mxCell id="9WcTvpFVvzm3gj0QFyEQ-35" value="Web API" style="shape=folder;fontStyle=1;spacingTop=10;tabWidth=40;tabHeight=14;tabPosition=left;html=1;shadow=0;" vertex="1" parent="jfjnhQVOOTjRMuESyao--1">
          <mxGeometry x="700" y="580" width="110" height="80" as="geometry" />
        </mxCell>
      </root>
    </mxGraphModel>
  </diagram>
</mxfile>
